PathFileType	4	(X/Y/Z)	s11c0301.trc
DataRate	CameraRate	NumFrames	NumMarkers	Units	OrigDataRate	OrigDataStartFrame	OrigNumFrames
200	200	6	48	mm	200	1250	2000
Frame#	Time	racr			lacr			c7			jug			rlel			rdr			llel			ldr			s2			lic			ric			lasi			rasi			rpsi			lpsi			rgt			lgt			rth1			rth2			rth3			rth4			rlfc			rmfc			rsh1			rsh2			rsh3			rsh4			rlmal			rcal			rtoe			rmt5			lth1			lth2			lth4			lth3			llfc			lmfc			llmal			lcal			lmt5			lsh1			lsh2			lsh3			lsh4			ltoe			SBIKE			LBIKE			RBIKE			
		X1	Y1	Z1	X2	Y2	Z2	X3	Y3	Z3	X4	Y4	Z4	X5	Y5	Z5	X6	Y6	Z6	X7	Y7	Z7	X8	Y8	Z8	X9	Y9	Z9	X10	Y10	Z10	X11	Y11	Z11	X12	Y12	Z12	X13	Y13	Z13	X14	Y14	Z14	X15	Y15	Z15	X16	Y16	Z16	X17	Y17	Z17	X18	Y18	Z18	X19	Y19	Z19	X20	Y20	Z20	X21	Y21	Z21	X22	Y22	Z22	X23	Y23	Z23	X24	Y24	Z24	X25	Y25	Z25	X26	Y26	Z26	X27	Y27	Z27	X28	Y28	Z28	X29	Y29	Z29	X30	Y30	Z30	X31	Y31	Z31	X32	Y32	Z32	X33	Y33	Z33	X34	Y34	Z34	X35	Y35	Z35	X36	Y36	Z36	X37	Y37	Z37	X38	Y38	Z38	X39	Y39	Z39	X40	Y40	Z40	X41	Y41	Z41	X42	Y42	Z42	X43	Y43	Z43	X44	Y44	Z44	X45	Y45	Z45	X46	Y46	Z46	X47	Y47	Z47	X48	Y48	Z48	
1250	6.2500	850.718326	1340.518860	-106.341974	780.751115	1376.894600	-454.957674	803.576524	1457.942215	-265.792525	779.747914	1274.153106	-291.488326	688.145406	1143.311721	44.500311	797.351872	929.484231	-66.309611	618.860018	1140.189076	-609.743407	793.664350	925.416469	-484.860914	197.902557	1292.646982	-206.327198	394.975604	1317.743949	-433.204856	431.651329	1211.939450	-49.969787	412.106585	1230.121099	-402.843644	439.157862	1158.538156	-96.392348	267.923820	1342.184707	-147.407616	248.710433	1356.109792	-237.721069	304.838817	1090.549515	-38.503720	309.848228	1200.658663	-454.518378	319.914163	970.040561	-36.935280	352.198337	887.141466	-48.708402	340.070080	802.527463	-67.335635	388.150532	892.694149	-55.758622	355.106725	700.516282	-89.678484	350.772458	679.939490	-214.220900	287.630089	557.345429	-69.721827	278.206325	470.585925	-83.972561	227.837099	399.453279	-85.008250	305.386512	463.308709	-111.026282	173.891633	270.138897	-94.087701	113.200380	288.419066	-142.480050	348.278788	121.945129	-150.692739	275.721973	128.206124	-78.805958	433.443138	1110.427352	-477.104394	510.659389	1073.110044	-473.191409	534.160747	1098.297590	-458.873536	561.521964	999.179656	-480.718070	651.702803	895.493333	-462.565513	662.603172	875.907933	-330.593558	306.444300	645.853642	-429.275711	247.665082	669.933346	-392.549507	304.086546	468.546439	-453.182255	557.198563	823.483456	-477.549849	506.462992	755.685146	-461.406804	426.428619	719.072567	-454.395397	528.849805	733.227722	-440.155463	371.951417	398.642766	-386.392786	-214.908385	956.661079	-255.581249	-17.747988	81.019164	-460.965139	-17.782601	80.902892	-62.080923	
1251	6.2550	852.162353	1342.024002	-109.964041	778.396897	1377.843870	-458.337196	803.416987	1458.611208	-269.272577	779.010510	1274.837823	-293.910066	690.914800	1145.217859	42.673152	797.806682	929.500378	-66.350429	613.212885	1138.287962	-607.944492	793.042792	925.830108	-484.560365	198.652036	1292.943359	-203.501857	392.264360	1320.044384	-432.999758	434.129734	1212.529360	-51.016274	410.480127	1232.405788	-402.372107	441.146751	1159.217720	-96.825036	269.248986	1342.766382	-144.843127	248.375147	1357.315537	-234.278930	306.001159	1091.574160	-38.041697	308.945588	1203.387727	-454.269218	320.222490	971.790576	-36.365503	351.832936	889.296652	-48.715694	338.701146	804.066139	-66.742469	387.800202	893.808820	-55.529553	352.802844	701.314201	-88.944843	347.323342	681.859082	-214.360739	284.067140	558.563601	-69.180653	273.453584	471.966440	-83.658731	222.181018	401.507982	-84.563296	300.486128	464.399052	-110.648961	166.433736	272.884274	-93.842379	106.597263	292.503559	-142.590843	337.803010	120.958078	-150.613369	265.554644	128.842867	-78.824449	433.311398	1112.864488	-476.405050	510.830665	1076.316520	-472.211609	534.099237	1101.986603	-458.295033	560.778960	1002.929181	-480.847430	654.920900	901.264690	-461.885057	666.537700	881.582708	-328.855090	313.770643	645.406678	-429.343075	254.083504	668.328767	-392.573148	314.829593	468.139274	-453.132448	561.945697	827.295361	-476.098635	512.359692	758.509606	-460.292971	432.956087	720.508705	-453.701924	535.035914	736.418242	-438.850180	384.061271	399.606412	-386.561234	-214.945357	956.677067	-255.615320	-17.743194	81.017119	-460.963163	-17.746554	80.904465	-62.142830	
1252	6.2600	853.488180	1343.375430	-113.427214	776.119003	1378.462567	-461.651918	803.296998	1458.959656	-272.649801	778.192304	1275.398958	-296.278210	693.468462	1146.952656	41.058309	798.271055	929.484785	-66.308275	607.611052	1136.557766	-605.840635	792.395789	926.264511	-484.240168	198.828744	1293.841175	-200.643860	389.738086	1322.163912	-432.594833	436.573804	1212.794745	-51.879999	408.880789	1234.576830	-402.166866	443.021496	1159.803082	-97.148226	270.595249	1343.473814	-142.737892	248.292532	1358.382125	-231.701139	307.283193	1092.832124	-37.301667	307.805619	1205.779707	-453.766922	321.120379	973.545974	-35.909189	352.120262	890.533693	-48.371533	338.171804	805.693716	-66.189889	388.038704	895.128175	-55.408038	351.661211	702.495126	-88.042119	345.169469	683.969922	-214.011215	281.623245	560.073780	-68.552216	269.555584	473.757173	-83.278232	217.155085	404.147848	-84.179537	296.436976	465.794463	-110.400847	159.495343	276.432228	-93.714685	100.292397	297.508684	-142.699429	327.178584	120.472413	-150.476296	255.029344	130.334154	-78.446009	433.079422	1114.986818	-475.768790	510.902419	1079.315333	-471.270881	533.873460	1105.357382	-457.815021	557.805456	1007.324001	-481.450950	658.759529	907.222060	-459.580421	669.988778	886.914671	-327.176943	320.640710	644.159830	-428.999742	260.398264	665.794056	-392.568375	325.473140	467.206916	-453.219635	566.134274	830.382002	-474.592789	517.676528	760.748448	-459.008948	438.954464	721.285081	-452.934486	540.645987	739.034969	-437.545194	395.983495	399.922226	-386.547791	-214.948225	956.693374	-255.662573	-17.758296	81.046572	-460.972537	-17.726634	80.941607	-62.171359	
1253	6.2650	854.561259	1344.483930	-116.759773	774.023648	1378.751944	-464.859723	803.102099	1459.077886	-275.925468	777.378559	1275.708848	-298.320139	695.714888	1148.492829	39.497782	798.648305	929.462597	-66.283952	602.042033	1135.144401	-603.454941	791.723289	926.720043	-483.900109	199.382250	1294.992321	-198.275589	387.424218	1324.388019	-431.933077	438.842942	1213.658640	-52.877201	407.416870	1236.553340	-402.081374	444.850823	1160.574887	-97.659657	271.917963	1344.645410	-141.250442	249.866494	1358.804264	-232.061541	308.692615	1094.184456	-36.426716	306.612809	1208.330150	-453.393399	322.407142	975.297286	-35.518348	353.005866	892.099679	-48.037023	338.632747	807.407999	-65.710383	388.955004	896.705327	-55.240592	351.940424	703.608306	-87.054794	344.780828	685.730122	-212.345999	280.083375	562.009867	-67.972536	266.525706	476.006066	-82.989446	212.955839	407.170960	-83.844018	292.512260	467.395591	-111.192998	152.922860	280.880259	-93.489346	94.588081	303.138512	-142.872474	316.799654	120.508666	-150.381063	244.931637	132.381629	-78.315910	432.747213	1117.078502	-475.233983	510.771571	1082.159297	-470.547227	533.369866	1108.527361	-457.433686	558.264768	1010.501391	-480.463566	661.861449	912.310955	-457.593231	672.764741	892.474834	-325.501906	327.128536	642.277919	-428.354812	266.298422	662.576022	-392.240228	335.981426	465.710460	-453.401741	569.404080	833.250273	-473.565497	522.457003	762.474162	-457.809721	444.425976	721.590151	-452.148056	545.690416	741.227694	-436.204254	407.788140	399.823389	-386.678264	-214.955560	956.762211	-255.715301	-17.775534	81.078358	-460.967903	-17.731645	80.992023	-62.173332	
1254	6.2700	855.368881	1345.402552	-119.975144	772.270948	1378.706440	-467.945825	802.950886	1458.916729	-279.059274	776.540729	1275.999307	-300.368231	697.667839	1149.700238	38.103816	798.991710	929.430207	-66.195181	596.567651	1133.991779	-600.869198	791.025239	927.197012	-483.539973	199.500025	1296.713956	-196.358234	385.391034	1326.426691	-431.141320	439.849234	1214.382459	-54.589805	405.940046	1238.483609	-402.255381	446.565929	1161.334285	-97.959717	271.816950	1346.975166	-137.878335	249.895302	1360.512154	-230.363736	310.064851	1095.751815	-35.501595	305.457913	1210.652452	-453.017351	324.075492	976.923050	-35.143804	354.449938	893.611462	-47.736655	340.072447	809.172979	-65.137795	390.499781	898.430711	-55.245725	353.490700	705.054457	-85.778340	346.106635	687.881014	-211.926358	279.447918	564.183374	-67.162040	264.295136	478.363920	-82.322941	209.399957	410.695689	-83.500411	290.681780	469.720832	-109.700139	146.989563	285.750243	-93.267885	89.326898	309.419818	-142.981917	306.507006	121.018537	-150.202694	235.111421	134.947242	-78.249261	432.235670	1118.963457	-474.683274	510.509927	1084.791388	-469.912364	532.469531	1111.721888	-457.048911	558.703707	1013.566100	-479.495537	663.961056	917.209669	-455.555152	674.848770	897.461017	-324.044359	333.299073	639.806071	-427.485717	271.845009	658.576447	-392.057791	346.220131	463.465651	-453.242670	572.365718	835.393722	-471.997365	526.682250	763.688530	-456.608650	449.408888	721.316768	-451.318237	550.223345	742.813179	-434.930232	419.400568	399.038574	-386.626851	-214.960783	956.839789	-255.764666	-17.761681	81.169170	-461.001283	-17.701384	81.039132	-62.196934	
1255	6.2750	855.920478	1346.023509	-123.006446	770.881166	1378.157646	-470.597984	802.833043	1458.725326	-281.985987	775.659601	1276.032496	-302.135255	699.315331	1150.774998	36.787514	799.303441	929.398474	-66.093982	591.403405	1133.046393	-597.828719	790.301584	927.695783	-483.159637	199.769648	1298.567217	-194.764118	383.672262	1328.514591	-430.340404	442.500324	1215.551114	-54.502458	404.425819	1240.445920	-402.613076	447.971481	1162.505431	-98.258170	272.711021	1348.536629	-136.497552	249.893881	1362.535681	-229.041967	311.455368	1097.322295	-34.657453	304.306598	1213.127745	-452.631415	325.591863	978.953144	-34.909777	356.933445	895.565287	-47.629210	342.683487	810.743269	-64.478495	392.459361	900.385488	-55.527457	356.124753	706.399711	-84.753078	349.110106	689.394053	-210.518824	279.643640	566.700163	-66.279089	262.747251	481.445303	-81.809306	206.497216	414.754646	-82.952388	288.260316	471.948320	-110.213186	141.493739	291.251460	-93.027679	84.732814	316.462443	-143.067294	296.407744	122.056935	-150.132207	225.484544	138.161558	-78.160164	431.529779	1120.872130	-474.089361	510.059959	1087.151162	-469.337803	531.285048	1114.167634	-456.298740	558.327187	1016.233466	-478.778034	665.022116	921.460842	-454.170920	676.106104	902.241556	-322.657699	339.142123	636.637896	-426.560491	277.072571	653.854187	-391.800022	356.171529	460.625568	-453.241400	574.685392	836.965910	-470.538308	530.332243	764.293774	-455.671774	453.898809	720.470601	-450.629448	554.195557	743.959698	-433.773097	430.685863	397.746727	-386.786912	-214.953791	956.909233	-255.801621	-17.747725	81.216317	-460.985299	-17.699194	81.110294	-62.196019	
